<?xml version="1.0" encoding="UTF-8" standalone="no"?>
<!-- Created with Inkscape (http://www.inkscape.org/) -->

<svg
   xmlns:dc="http://purl.org/dc/elements/1.1/"
   xmlns:cc="http://creativecommons.org/ns#"
   xmlns:rdf="http://www.w3.org/1999/02/22-rdf-syntax-ns#"
   xmlns:svg="http://www.w3.org/2000/svg"
   xmlns="http://www.w3.org/2000/svg"
   version="1.1"
   width="437.0676"
   height="230.69235"
   id="svg2">
  <defs
     id="defs4" />
  <metadata
     id="metadata7">
    <rdf:RDF>
      <cc:Work
         rdf:about="">
        <dc:format>image/svg+xml</dc:format>
        <dc:type
           rdf:resource="http://purl.org/dc/dcmitype/StillImage" />
        <dc:title></dc:title>
      </cc:Work>
    </rdf:RDF>
  </metadata>
  <g
     transform="translate(-26.344134,-464.49341)"
     id="layer1">
    <path
       d="m 65.703485,534.09216 18.398209,-39.74013 22.813816,40.47606 z"
       id="path3803"
       style="fill:#666666;stroke:#000000;stroke-width:2.91412902px;stroke-linecap:butt;stroke-linejoin:miter;stroke-opacity:1" />
    <path
       d="m 393.92771,610.26079 c 4.74361,3.09391 10.55153,4.62499 16.19043,5.15151 6.02875,0.56292 12.64175,0.55388 18.03023,-2.2078 11.58679,-5.93841 22.10368,-16.44365 26.49344,-28.7012 2.15397,-6.01459 0.42794,-12.93187 -1.10387,-19.13414 -1.77676,-7.19405 -5.44774,-13.84756 -9.19913,-20.23804 -2.9309,-4.99282 -8.33699,-8.53718 -10.30298,-13.98267 -2.87873,-7.97364 1.59053,-17.4846 -1.47187,-25.38952 -2.1106,-5.448 -5.78554,-11.0579 -11.03893,-13.6147 -6.72837,-3.27467 -15.34822,-2.73835 -22.44582,-0.36797 -3.97938,1.32899 -7.80444,4.11309 -9.93504,7.72725 -3.21557,5.45462 -2.67171,12.44013 -2.94371,18.76619 -0.22702,5.28208 2.73356,10.7929 1.1039,15.82246 -3.00614,9.27753 -14.99363,13.45267 -18.76622,22.44584 -2.90823,6.93277 -4.51888,15.29181 -2.20777,22.44582 4.27416,13.23064 15.95155,23.68136 27.59734,31.27697 z"
       id="path3795"
       style="fill:#000000;stroke:#000000;stroke-width:2.91412902px;stroke-linecap:butt;stroke-linejoin:miter;stroke-opacity:1" />
    <path
       d="m 308.47533,560.6073 a 2.2097087,3.7249374 0 1 1 -4.41941,0 2.2097087,3.7249374 0 1 1 4.41941,0 z"
       transform="matrix(2.8506025,-0.60515586,0.60515586,2.8506025,-811.92927,-902.37168)"
       id="path3787"
       style="fill:#ffffff;stroke:none" />
    <path
       d="m 152.54308,571.62454 c -7.14569,7.41634 40.7532,-47.15667 54.45871,-64.76171 -1.47184,-1.47187 12.5108,3.67961 19.87009,2.94371 7.35928,-0.73594 20.60601,-5.15151 20.60601,-5.15151 0,0 16.92633,24.28565 25.75749,35.32455 5.99416,7.49272 47.83536,33.1168 47.83536,33.1168 0,0 -18.39819,0.73596 -21.34191,2.20783 -2.94371,1.47184 -16.19044,5.15149 -16.19044,5.15149 0,0 -31.64493,-30.90901 -35.32458,-37.5324 -3.67964,-6.62334 -16.92636,-8.83111 -24.28565,-7.35928 -7.35928,1.47187 -53.72282,47.83538 -53.72282,47.83538 z"
       id="path3000"
       style="fill:#ff6600;stroke:none" />
    <path
       d="m 85.602995,529.63989 c -6.200538,-0.093 -12.401077,1.45056 -18.601615,4.30047 l -0.407249,10.29792 -3.869177,-1.84724 -34.584943,0.54457 -0.0087,18.41025 9.591564,12.11554 33.854575,9.90775 -0.08538,-32.69473 2.66127,-0.1932 -2.575741,32.88796 34.605291,10.29052 0,-59.91069 c -11.62237,-4.09084 -15.533802,-3.77545 -20.581044,-4.10909 z"
       id="path3772"
       style="fill:#deaa87;stroke:#000000;stroke-width:2.91412902px;stroke-linecap:butt;stroke-linejoin:miter;stroke-opacity:1" />
    <path
       d="m 107.5808,567.14948 c 0,0 16.26105,-8.03574 33.18742,-4.35609 16.92637,3.67964 29.12249,18.25804 45.62756,21.34193 10.63465,1.98707 27.22937,2.94372 32.38087,-2.2078 5.15151,-5.15147 7.21592,-14.79281 13.98267,-14.71856 3.64657,0.0399 9.56705,1.47187 7.35928,8.09522 -2.2078,6.62334 -12.47629,22.2279 -22.07788,30.17307 -8.36926,6.92545 -21.34191,15.45449 -29.43714,13.98265 -8.09521,-1.47185 -68.83169,-24.22081 -77.66282,-23.48466 -4.41557,0.36804 -3.35996,-28.82576 -3.35996,-28.82576 z"
       id="path2998"
       style="fill:#00ffff;stroke:none" />
    <path
       d="m 29.091037,567.76092 c -11.263545,-23.48128 14.002187,10.59001 41.411378,11.58719 20.691074,0.75276 41.816795,4.1937 57.387045,4.78721 24.83371,0.9466 44.40829,33.41272 68.80935,28.70121 32.12646,-6.20319 49.66943,-12.91658 73.59286,-27.96526 0,0 26.98038,-29.07636 75.06472,-4.41557 57.39107,29.43388 84.07293,62.49937 81.68809,61.818 8.60323,15.77259 -57.20153,-30.90866 -94.93481,-36.06052 -35.00745,-4.77967 -58.87429,5.15151 -69.17729,13.98266 -10.30298,8.83113 -16.3827,14.23174 -30.17306,17.6623 -13.79037,3.43058 -31.92164,-1.34014 -47.83538,-5.88744 -15.91374,-4.54733 -27.87166,-16.0871 -43.41982,-18.39824 -16.10429,-2.39381 -34.51829,4.32005 -48.571274,5.15151 -24.278542,1.43647 -33.207143,-3.7814 -45.259632,-13.98262 -10.530029,-8.91264 -12.188811,-23.65209 -18.582177,-36.98043 z"
       id="path2996"
       style="fill:#0000ff;stroke:none" />
    <path
       d="m 223.92816,503.91908 c -5.83854,-12.31061 -6.17434,-26.69243 -25.75752,-30.90899 l 0,-8.09523 c 12.86763,-2.89923 21.86841,9.66901 30.90904,22.07786 8.09521,-11.55982 20.60598,-19.09134 28.70119,-16.92637 l 0,8.09525 c -10.00323,-1.14511 -21.27978,15.09143 -29.43712,25.02158 z"
       id="path3002"
       style="fill:#ff6600;stroke:none" />
    <path
       d="m 399.07921,530.04455 c -3.33131,5.05618 -6.51298,10.25194 -9.05195,15.74888 -2.96076,6.41019 -5.84186,13.00282 -7.13847,19.94367 -0.8787,4.70374 -1.80245,9.78559 -0.36798,14.35062 3.28729,10.46147 3.93708,22.80457 19.50211,26.49343 5.13755,1.21758 10.97651,1.36017 15.82247,-0.73593 5.17477,-2.23835 8.86545,-7.18716 12.14283,-11.77487 2.67914,-3.75027 5.13225,-7.96414 5.88741,-12.51078 1.27391,-7.66973 -0.47202,-15.69699 -2.57574,-23.18175 -2.821,-10.03676 -6.28895,-20.56901 -13.24673,-28.33327 -2.20404,-2.45952 -5.20703,-4.59975 -8.46318,-5.15148 -3.46295,-0.58677 -7.34445,0.31482 -10.30298,2.20777 -1.03319,0.66104 -1.53296,1.91948 -2.20779,2.94371 z"
       id="path3777"
       style="fill:#ffffff;stroke:none" />
    <path
       d="m 430.72415,613.94043 c -1.91039,-2.14352 -2.64727,-5.23929 -2.94373,-8.09521 -0.71642,-6.90133 1.47187,-16.19044 2.94373,-20.60601 1.47184,-4.41556 0.64394,-10.67097 5.42746,-9.1991 4.78354,1.47184 1.19589,4.41559 3.77163,4.78354 2.57578,0.36797 4.22404,-3.26487 6.89932,-3.1277 2.96507,0.15212 4.18958,0.47698 4.87554,3.1277 0.67113,2.59337 1.47187,3.31167 4.04761,2.94372 2.57577,-0.36797 2.24749,-1.5581 5.51947,0 1.93181,0.9199 3.31169,4.0476 0.73595,7.35928 -2.57578,3.31167 -12.38433,15.0793 -19.50211,21.70991 -1.02328,0.95324 -2.00732,2.07144 -3.31172,2.57574 -1.49161,0.57667 -3.21413,0.67538 -4.78351,0.36796 -1.34574,-0.26372 -2.76722,-0.81609 -3.67964,-1.83983 z"
       id="path3779"
       style="fill:#ffd42a;stroke:none" />
    <path
       d="m 396.43587,612.58034 c 0.93759,-2.71386 0.42537,-5.85466 -0.40087,-8.60448 -1.99662,-6.64491 -7.59344,-14.37485 -10.65221,-17.88302 -3.05882,-3.50817 -4.70376,-9.59993 -8.55153,-6.39943 -3.84778,3.2005 0.59679,4.53555 -1.63854,5.86711 -2.23538,1.33152 -5.15556,-1.38638 -7.5717,-0.22963 -2.6778,1.28226 -3.68273,2.05361 -3.29499,4.76407 0.3792,2.65183 -0.083,3.62307 -2.60175,4.2754 -2.51886,0.65233 -2.67418,-0.57236 -5.09376,2.12563 -1.42856,1.59292 -1.49751,5.01076 2.15494,7.07512 3.65246,2.06428 17.23628,9.14694 26.35862,12.52499 1.31145,0.48564 2.6502,1.13864 4.04819,1.10169 1.59867,-0.0422 3.22632,-0.61451 4.55631,-1.50259 1.14041,-0.76152 2.23951,-1.81874 2.68729,-3.11486 z"
       id="path3781"
       style="fill:#ffd42a;stroke:none" />
    <path
       d="m 308.47533,560.6073 a 2.2097087,3.7249374 0 1 1 -4.41941,0 2.2097087,3.7249374 0 1 1 4.41941,0 z"
       transform="matrix(-2.8506025,-0.60515586,-0.60515586,2.8506025,1630.1483,-902.37168)"
       id="path3789"
       style="fill:#ffffff;stroke:none" />
    <path
       d="m 307.33892,561.74371 a 0.94701803,1.5783633 0 1 1 -1.89403,0 0.94701803,1.5783633 0 1 1 1.89403,0 z"
       transform="matrix(-2.7835626,-0.8625124,-0.8625124,2.7835626,1755.2239,-785.34392)"
       id="path3793"
       style="fill:#000000;stroke:none" />
    <path
       d="m 307.33892,561.74371 a 0.94701803,1.5783633 0 1 1 -1.89403,0 0.94701803,1.5783633 0 1 1 1.89403,0 z"
       transform="matrix(2.7835626,-0.8625124,0.8625124,2.7835626,-935.90097,-784.97595)"
       id="path3791"
       style="fill:#000000;stroke:none" />
    <path
       d="m 395.26946,522.25033 c 1.55981,-3.75742 6.81591,-5.67485 11.16903,-5.82045 8.33731,-0.27887 11.05712,0.96772 13.00883,1.92528 2.09566,1.02817 3.95719,2.65931 4.28548,3.22623 0.67614,1.16757 0.62808,1.73155 -0.39028,2.61657 -1.05594,0.91763 -2.56265,2.0586 -4.78351,3.41945 -2.83315,1.73605 -4.68885,3.9164 -7.54486,4.09606 -3.71071,0.23343 -7.28497,-2.00975 -10.39231,-4.05143 -2.12041,-1.39321 -6.32514,-3.06843 -5.35238,-5.41171 z"
       id="path3783"
       style="fill:#ffd42a;stroke:none" />
    <path
       d="m 394.92044,522.68544 c 16.27704,8.65246 29.13892,-0.82301 29.40332,0.0912 l -0.13229,-0.15241"
       id="path3785"
       style="fill:none;stroke:#000000;stroke-width:0.9536413;stroke-linecap:butt;stroke-linejoin:miter;stroke-miterlimit:4;stroke-opacity:1;stroke-dasharray:none" />
    <path
       d="m 308.4122,563.98499 a 0.15783633,0.22097087 0 1 1 -0.31567,0 0.15783633,0.22097087 0 1 1 0.31567,0 z"
       transform="matrix(2.9141291,0,0,2.9141291,-491.26608,-1121.4988)"
       id="path3797"
       style="fill:#000000;stroke:none" />
    <path
       d="m 308.4122,563.98499 a 0.15783633,0.22097087 0 1 1 -0.31567,0 0.15783633,0.22097087 0 1 1 0.31567,0 z"
       transform="matrix(2.9141291,0,0,2.9141291,-487.09763,-1121.5102)"
       id="path3801"
       style="fill:#000000;stroke:none" />
    <text
       x="26.773964"
       y="702.96991"
       transform="scale(1.030464,0.97043662)"
       id="text3813"
       xml:space="preserve"
       style="font-size:62.06087494px;font-style:normal;font-weight:normal;line-height:125%;letter-spacing:0px;word-spacing:0px;fill:#000000;fill-opacity:1;stroke:none;font-family:Sans"><tspan
         x="26.773964"
         y="702.96991"
         id="tspan3815"
         style="font-weight:bold;-inkscape-font-specification:Sans Bold">lug-myk.de</tspan></text>
  </g>
</svg>
